<?xml version="1.0" encoding="UTF-8"?>
<svg version="1.1" xmlns="http://www.w3.org/2000/svg" width="2000" height="1837">
<path d="M0 0 C0.74071973 -0.00297112 1.48143946 -0.00594224 2.24460524 -0.0090034 C4.70439764 -0.01761232 7.16414093 -0.01919201 9.62394714 -0.02069092 C11.39723309 -0.02532485 13.17051806 -0.03035028 14.94380188 -0.03573608 C19.74816931 -0.04881188 24.55252279 -0.05529631 29.35690522 -0.05974674 C32.36691297 -0.06268697 35.37691698 -0.06679366 38.38692284 -0.07125092 C47.82852434 -0.0849169 57.27011722 -0.09458637 66.71172792 -0.09845281 C77.56485987 -0.10292304 88.41786523 -0.12042654 99.27095872 -0.1494534 C107.68833505 -0.17117408 116.10567604 -0.18116269 124.52308005 -0.18249393 C129.53651192 -0.1835351 134.54982466 -0.18929411 139.5632267 -0.20731354 C144.29030237 -0.22397348 149.01717167 -0.22586427 153.74426651 -0.21717453 C155.46334708 -0.21641347 157.18243958 -0.22062106 158.90149117 -0.23063278 C175.17410239 -0.31971668 191.03715755 1.40512834 206.46842957 6.82794189 C207.48147156 7.17679443 208.49451355 7.52564697 209.53825378 7.8850708 C228.84463568 14.73909798 244.55926092 26.03154235 259.21842957 40.14044189 C260.1658905 40.99315674 260.1658905 40.99315674 261.13249207 41.86309814 C284.43350596 63.45242619 296.28833198 97.11450745 298.21842957 128.14044189 C298.36151946 134.12018344 298.35470561 140.09782192 298.34706402 146.0789814 C298.34841192 147.90293845 298.35019653 149.72689522 298.35237625 151.55085146 C298.35709754 156.56397424 298.3556074 161.57707881 298.35309848 166.59020247 C298.35146392 172.0438819 298.35560748 177.49755746 298.35900766 182.95123565 C298.36416064 192.51006691 298.36557903 202.0688931 298.36455154 211.6277256 C298.36302734 225.84227591 298.36718678 240.05682061 298.37242617 254.27136982 C298.38221731 281.13531649 298.38491109 307.99926146 298.38548323 334.86320968 C298.38554798 337.82561379 298.38561592 340.78801789 298.38568664 343.750422 C298.38570364 344.4855647 298.38572064 345.2207074 298.38573816 345.97812715 C298.38614676 362.27470576 298.38833714 378.57128398 298.39084248 394.86786238 C298.39187085 401.57994722 298.39286089 408.29203205 298.39385873 415.00411689 C298.39402461 416.1165868 298.39402461 416.1165868 298.39419385 417.25153084 C298.40051731 459.74747091 298.40464303 502.24341072 298.4041853 544.73935127 C298.40416952 546.32944348 298.40415378 547.91953569 298.40413809 549.5096279 C298.4040647 556.68863315 298.40397653 563.8676384 298.4038842 571.04664365 C298.40384308 574.24789119 298.40380293 577.44913874 298.40376289 580.65038628 C298.40374249 582.2526677 298.40372147 583.85494912 298.40369983 585.45723054 C298.40301963 636.11986648 298.4103364 686.78249542 298.42424011 737.44512939 C298.4277412 750.20937663 298.43121068 762.97362388 298.43450451 775.73787117 C298.43480882 776.91682495 298.43480882 776.91682495 298.43511928 778.11959598 C298.44133539 802.34841688 298.44510006 826.57723721 298.4463625 850.80605888 C298.44640245 851.56687981 298.4464424 852.32770074 298.44648356 853.11157685 C298.44733688 869.81440362 298.44759801 886.51723036 298.44731318 903.22005714 C298.4472167 909.19681675 298.44716465 915.17357636 298.44713445 921.15033597 C298.44712654 922.63717299 298.44711633 924.12401002 298.44710383 925.61084705 C298.4469276 949.28939625 298.45262168 972.96793946 298.46125765 996.64648694 C298.47015382 1021.16312461 298.47172609 1045.67975281 298.46494552 1070.1963913 C298.46124796 1084.32787867 298.46308841 1098.45933982 298.47288786 1112.59082442 C298.47888176 1122.03178561 298.47759894 1131.47272777 298.47041736 1140.91368808 C298.46653091 1146.29181212 298.46577451 1151.66988535 298.47387471 1157.04800583 C298.48118975 1161.94778828 298.47917469 1166.84747793 298.46995084 1171.74725634 C298.46823997 1173.50186129 298.46982344 1175.25647363 298.47525205 1177.01107101 C298.59337802 1217.95764404 286.4882248 1253.82218572 257.46842957 1283.32794189 C233.93116441 1306.61510299 201.50338099 1321.33344357 168.20170593 1321.23382568 C167.03546692 1321.2249231 165.86922791 1321.21602051 164.66764832 1321.20684814 C163.46732971 1321.20205444 162.26701111 1321.19726074 161.03031921 1321.19232178 C158.0929628 1321.17989703 155.1557269 1321.16248394 152.21842957 1321.14044189 C152.22287079 1321.8040976 152.22731201 1322.4677533 152.23188782 1323.15151978 C152.7341777 1401.88524847 147.69572833 1477.44472871 113.26237488 1549.92462158 C112.26062359 1552.05088321 111.29309925 1554.18925527 110.33561707 1556.33575439 C96.15096705 1587.83522838 76.65617477 1616.89834539 54.64079285 1643.41387939 C53.3976498 1644.92289203 52.1789391 1646.45196539 50.96452332 1647.98419189 C37.79631822 1664.57563057 22.42377906 1680.47826769 6.21842957 1694.14044189 C4.78757019 1695.40501221 4.78757019 1695.40501221 3.32780457 1696.69512939 C-19.22733745 1716.56175793 -44.41671954 1733.7453276 -70.78157043 1748.14044189 C-71.65571594 1748.61932861 -72.52986145 1749.09821533 -73.43049622 1749.59161377 C-122.36374595 1776.20853263 -175.51064026 1792.56448352 -230.78157043 1799.14044189 C-232.23273254 1799.31833252 -232.23273254 1799.31833252 -233.71321106 1799.49981689 C-313.50447906 1808.84123364 -399.61320489 1793.59019822 -470.7278595 1756.21221924 C-473.03532305 1755.00801513 -475.35704863 1753.8339948 -477.68000793 1752.65997314 C-508.62568346 1736.89966505 -537.55408288 1716.92108726 -563.19953918 1693.47637939 C-564.60603227 1692.20393936 -566.01865305 1690.9376716 -567.46003723 1689.70489502 C-573.12616848 1684.84883271 -578.44351573 1679.66465981 -583.71736145 1674.38995361 C-585.20798659 1672.90150952 -586.70644061 1671.42126913 -588.20539856 1669.94122314 C-593.72057062 1664.45801486 -598.82553698 1658.82887538 -603.68025208 1652.73883057 C-605.68592345 1650.25871433 -607.76667182 1647.88387842 -609.90657043 1645.51934814 C-613.77411614 1641.20944234 -617.3196294 1636.71780872 -620.78157043 1632.07794189 C-621.41748108 1631.22579102 -622.05339172 1630.37364014 -622.70857239 1629.4956665 C-635.29319014 1612.45332413 -646.65053028 1594.73993935 -656.78157043 1576.14044189 C-657.26545227 1575.26694092 -657.74933411 1574.39343994 -658.24787903 1573.49346924 C-680.24286114 1533.66784966 -694.97568759 1489.60568289 -702.47688293 1444.78497314 C-702.70317142 1443.45015536 -702.92981387 1442.11539753 -703.15681458 1440.78070068 C-703.70185842 1437.56784888 -704.2433918 1434.35444949 -704.78157043 1431.14044189 C-705.85127831 1431.13497345 -705.85127831 1431.13497345 -706.94259644 1431.12939453 C-713.77867589 1431.0909772 -720.6143818 1431.03354303 -727.4501276 1430.95653915 C-730.96158341 1430.91760569 -734.47280873 1430.88516087 -737.98445129 1430.8694458 C-783.82791747 1430.64930368 -821.54841589 1419.47482126 -855.78157043 1388.14044189 C-856.78703918 1387.2413208 -856.78703918 1387.2413208 -857.81282043 1386.32403564 C-884.49783414 1361.21243077 -899.85802307 1322.3315365 -900.98469543 1286.08966064 C-901.57199968 1246.77372993 -889.55930486 1211.08557671 -863.78157043 1181.14044189 C-862.59047668 1179.7463208 -862.59047668 1179.7463208 -861.37532043 1178.32403564 C-855.68470135 1171.85005602 -849.64253895 1166.3471848 -842.78157043 1161.14044189 C-842.25579407 1160.73438721 -841.7300177 1160.32833252 -841.18830872 1159.90997314 C-832.27605481 1153.06451963 -823.02465937 1147.7445049 -812.78157043 1143.14044189 C-812.16700989 1142.86216553 -811.55244934 1142.58388916 -810.91926575 1142.29718018 C-803.54130082 1139.01257838 -796.06361098 1136.49924048 -788.28157043 1134.39044189 C-787.5592926 1134.19168457 -786.83701477 1133.99292725 -786.09284973 1133.78814697 C-770.8139231 1129.86370176 -755.57087172 1129.84676589 -739.90583801 1129.86578369 C-737.52231182 1129.86142892 -735.13878703 1129.85624323 -732.75526428 1129.85029602 C-726.31904857 1129.83697573 -719.88289184 1129.83631966 -713.44666505 1129.83885932 C-709.41530338 1129.8401493 -705.38395046 1129.83750767 -701.35259056 1129.83387184 C-700.68043386 1129.83327665 -700.00827717 1129.83268146 -699.31575209 1129.83206824 C-697.94962472 1129.8308563 -696.58349736 1129.82964217 -695.21737 1129.82842586 C-682.44311026 1129.81758221 -669.668877 1129.81969745 -656.89461579 1129.82581071 C-645.25313332 1129.8309745 -633.61173467 1129.81973294 -621.97026876 1129.80071249 C-609.96895773 1129.78125701 -597.96768619 1129.77309169 -585.96635932 1129.77683574 C-579.24777294 1129.77873647 -572.52926833 1129.77610046 -565.81069374 1129.7621212 C-559.4862986 1129.74945307 -553.16206988 1129.75157118 -546.837677 1129.76453209 C-544.53204477 1129.76687815 -542.22640049 1129.76423502 -539.92078209 1129.75590897 C-496.54060393 1129.61069382 -458.6570481 1142.01015946 -426.78157043 1172.14044189 C-425.56533997 1173.25999268 -425.56533997 1173.25999268 -424.32453918 1174.40216064 C-404.00132942 1193.76521876 -391.6978012 1219.2754836 -384.78157043 1246.14044189 C-384.45930481 1247.34829346 -384.13703918 1248.55614502 -383.80500793 1249.80059814 C-376.08778538 1284.6723468 -382.91935603 1322.12752494 -399.78157043 1353.14044189 C-400.33586731 1354.18716064 -400.89016418 1355.23387939 -401.46125793 1356.31231689 C-413.2587162 1377.64934667 -431.33033275 1395.15835188 -451.78157043 1408.14044189 C-452.65579651 1408.70964355 -452.65579651 1408.70964355 -453.54768372 1409.29034424 C-475.23167934 1423.27655302 -502.07536865 1430.36130196 -527.71907043 1430.23809814 C-529.4000885 1430.23597572 -529.4000885 1430.23597572 -531.11506653 1430.23381042 C-534.67059576 1430.22824328 -538.22606045 1430.21569687 -541.78157043 1430.20294189 C-544.20214244 1430.19792265 -546.62271543 1430.19336048 -549.04328918 1430.18927002 C-554.95607137 1430.17828462 -560.86881629 1430.16157942 -566.78157043 1430.14044189 C-553.34369171 1480.69170993 -533.34662968 1528.643895 -496.78157043 1567.14044189 C-495.69166673 1568.4056448 -494.60796483 1569.67622596 -493.53157043 1570.95294189 C-484.82000159 1580.93837222 -475.23021222 1590.00485821 -464.78157043 1598.14044189 C-463.46534533 1599.20676808 -462.15033414 1600.27459366 -460.83625793 1601.34356689 C-401.05896004 1649.50741295 -322.88825838 1670.6159572 -246.87483215 1663.31573486 C-190.6823611 1656.85573084 -137.75644081 1634.55071502 -93.78157043 1599.14044189 C-93.26513977 1598.72842529 -92.74870911 1598.31640869 -92.21662903 1597.89190674 C-83.81525183 1591.1318496 -76.11020823 1583.67500761 -68.46907043 1576.07794189 C-67.55004944 1575.16818604 -66.63102844 1574.25843018 -65.68415833 1573.32110596 C-59.62622955 1567.23527558 -54.08381351 1560.89250219 -48.78157043 1554.14044189 C-48.19690002 1553.40011719 -47.61222961 1552.65979248 -47.00984192 1551.89703369 C-1.01950143 1492.86230943 14.98715765 1425.06578452 15.81932068 1351.61010742 C15.86029968 1348.15594068 15.91094726 1344.70191453 15.96061707 1341.24786377 C16.05565528 1334.54549415 16.14057082 1327.84303267 16.21842957 1321.14044189 C15.10868271 1321.14976997 15.10868271 1321.14976997 13.97651672 1321.1592865 C10.58060433 1321.18417719 7.18471122 1321.19948479 3.78874207 1321.21466064 C2.04331116 1321.22958557 2.04331116 1321.22958557 0.26261902 1321.24481201 C-32.6351778 1321.35489622 -63.78648055 1307.18735127 -87.78157043 1285.14044189 C-88.65297668 1284.35153564 -89.52438293 1283.56262939 -90.42219543 1282.74981689 C-111.15001117 1263.06491013 -124.00302896 1236.0826002 -128.78157043 1208.14044189 C-128.94995926 1207.20338409 -129.11834808 1206.26632629 -129.2918396 1205.3008728 C-130.07975549 1199.70119688 -129.9596058 1194.05604713 -129.9868927 1188.41217041 C-130.0017421 1186.50869087 -130.0017421 1186.50869087 -130.01689148 1184.5667572 C-130.04379464 1181.10449197 -130.06488262 1177.64221332 -130.08489347 1174.17990232 C-130.10684364 1170.55506558 -130.13418791 1166.93026953 -130.16094971 1163.3054657 C-130.210755 1156.44918988 -130.25573867 1149.59289132 -130.29897207 1142.73657125 C-130.34844877 1134.92758263 -130.40332803 1127.11863487 -130.45865166 1119.30968583 C-130.57228485 1103.2533089 -130.67916412 1087.19689443 -130.78157043 1071.14044189 C-131.37951038 1071.34163037 -131.97745033 1071.54281885 -132.59350967 1071.75010395 C-135.33692946 1072.67207998 -138.08121302 1073.59145881 -140.82551575 1074.51080322 C-141.76597748 1074.82729073 -142.70643921 1075.14377823 -143.67539978 1075.46985626 C-150.90077487 1077.88733863 -158.12713128 1080.0202142 -165.53157043 1081.82794189 C-166.70276428 1082.11628906 -167.87395813 1082.40463623 -169.0806427 1082.70172119 C-196.8540837 1089.35201602 -224.51998743 1091.44616286 -252.99714661 1091.4151001 C-255.66738887 1091.4194579 -258.33762018 1091.42458203 -261.00785828 1091.43058777 C-267.45670871 1091.44321872 -273.90551728 1091.44514311 -280.35437801 1091.44278751 C-285.60680428 1091.44099089 -290.85921805 1091.44278244 -296.11164284 1091.44701195 C-296.86451509 1091.44760714 -297.61738735 1091.44820233 -298.39307392 1091.44881555 C-299.92346769 1091.45002754 -301.45386146 1091.45124167 -302.98425523 1091.45245793 C-317.27810352 1091.46328896 -331.57192812 1091.46119224 -345.86577771 1091.45507308 C-358.88019194 1091.44990896 -371.89453121 1091.46115401 -384.90893062 1091.4801713 C-398.34105543 1091.49964526 -411.77314495 1091.507789 -425.20528394 1091.50404805 C-432.71874132 1091.50215027 -440.23213498 1091.50448252 -447.74558067 1091.51876259 C-454.14275563 1091.53080024 -460.53982766 1091.53194523 -466.93700435 1091.51997242 C-470.18695001 1091.51416874 -473.4366741 1091.51443512 -476.68661308 1091.52497482 C-497.93477857 1091.5888361 -518.98001737 1090.09631814 -539.84407043 1085.89044189 C-540.89949036 1085.68137207 -541.95491028 1085.47230225 -543.04231262 1085.25689697 C-603.63990339 1072.82350884 -663.15437645 1042.9854666 -698.08137512 990.17510986 C-700.8046791 985.91627975 -703.31774741 981.55304473 -705.78157043 977.14044189 C-706.4222345 976.02153564 -707.06289856 974.90262939 -707.72297668 973.74981689 C-712.09247324 965.87589583 -715.72232064 957.78566042 -719.28157043 949.51544189 C-723.139138 940.56471597 -727.09888055 932.08861393 -732.78157043 924.14044189 C-733.350047 923.28966064 -733.91852356 922.43887939 -734.50422668 921.56231689 C-738.44824145 917.36799588 -743.25815787 915.00236335 -749.037323 914.63250732 C-750.57697868 914.60908144 -752.117063 914.6069435 -753.65681458 914.62286377 C-754.50505295 914.61585449 -755.35329132 914.60884521 -756.22723389 914.60162354 C-759.00740621 914.58413995 -761.78654556 914.59563061 -764.56672668 914.60919189 C-766.5115071 914.60649446 -768.45628619 914.60260994 -770.40106201 914.59759521 C-774.46691289 914.59171344 -778.5324111 914.60022143 -782.59822083 914.61895752 C-787.79903978 914.64176143 -792.99903361 914.62860639 -798.19982243 914.60466766 C-802.21225153 914.59018695 -806.22448623 914.59482585 -810.23692131 914.60517883 C-812.15419552 914.60783904 -814.07148762 914.60460129 -815.98874092 914.59526062 C-818.67154074 914.58505578 -821.35301898 914.60064982 -824.03572083 914.62286377 C-825.21341537 914.61071838 -825.21341537 914.61071838 -826.41490173 914.59832764 C-833.38575709 914.70479427 -837.56725617 917.02240216 -842.65657043 921.89044189 C-850.62442676 931.95510251 -855.6918581 943.97028631 -860.78157043 955.64044189 C-874.80652358 987.7320327 -895.00987014 1015.6678428 -923.13557434 1036.89581299 C-924.57233937 1037.98223069 -925.99644755 1039.08534632 -927.41828918 1040.19122314 C-961.17024721 1065.78336714 -1001.97333474 1079.42025003 -1043.21907043 1086.95294189 C-1044.2823053 1087.1479126 -1045.34554016 1087.3428833 -1046.44099426 1087.54376221 C-1065.52481928 1090.83392679 -1084.4146727 1091.43627407 -1103.74421692 1091.4151001 C-1106.39959207 1091.41945734 -1109.05495619 1091.42458125 -1111.71032715 1091.43058777 C-1118.12756836 1091.443227 -1124.54476752 1091.4451419 -1130.96201908 1091.44278751 C-1136.19060675 1091.44099119 -1141.41918184 1091.44278183 -1146.64776802 1091.44701195 C-1147.39713424 1091.44760714 -1148.14650045 1091.44820233 -1148.91857474 1091.44881555 C-1150.44187585 1091.45002755 -1151.96517696 1091.45124168 -1153.48847807 1091.45245793 C-1167.72184746 1091.463293 -1181.95519307 1091.4611908 -1196.18856377 1091.45507308 C-1209.13958307 1091.44991335 -1222.09052693 1091.46114165 -1235.04153132 1091.4801713 C-1248.41148831 1091.49966236 -1261.78140982 1091.50778576 -1275.15138108 1091.50404805 C-1282.62861971 1091.50215221 -1290.10579431 1091.50446251 -1297.58302116 1091.51876259 C-1303.95232038 1091.53082263 -1310.32151621 1091.53192155 -1316.69081723 1091.51997242 C-1319.9249256 1091.51418266 -1323.15881234 1091.51440498 -1326.39291382 1091.52497482 C-1349.61909232 1091.59530652 -1372.79691515 1090.06405976 -1395.59407043 1085.39044189 C-1397.51304138 1085.00638184 -1397.51304138 1085.00638184 -1399.47077942 1084.61456299 C-1411.46017147 1082.16460411 -1423.16067464 1078.96048067 -1434.78157043 1075.14044189 C-1435.69132629 1074.84444092 -1436.60108215 1074.54843994 -1437.53840637 1074.24346924 C-1452.90097443 1069.16740471 -1467.38182873 1062.48639708 -1481.78157043 1055.14044189 C-1482.61704407 1054.71505127 -1483.4525177 1054.28966064 -1484.31330872 1053.85137939 C-1508.16850692 1041.54414171 -1529.5175478 1024.73615498 -1548.78157043 1006.14044189 C-1549.39951477 1005.54441162 -1550.01745911 1004.94838135 -1550.65412903 1004.33428955 C-1558.57482081 996.65139687 -1565.97439355 988.84116446 -1572.78157043 980.14044189 C-1573.68491238 979.04688732 -1574.59134518 977.95588101 -1575.50032043 976.86700439 C-1588.75304924 960.8752308 -1599.76891219 943.30473798 -1609.78157043 925.14044189 C-1610.23096985 924.33203857 -1610.68036926 923.52363525 -1611.14338684 922.69073486 C-1635.568763 878.47551863 -1650.70348987 828.81529577 -1658.03157043 778.95294189 C-1658.18271301 777.93514648 -1658.33385559 776.91735107 -1658.48957825 775.86871338 C-1658.98048529 772.29855587 -1659.38655239 768.7221274 -1659.78157043 765.14044189 C-1659.90653082 764.04826874 -1659.90653082 764.04826874 -1660.03401566 762.93403149 C-1662.44497038 740.97459732 -1662.07673869 718.92229833 -1662.05022144 696.86442113 C-1662.04508484 691.23925803 -1662.04987388 685.6141008 -1662.05299377 679.98893738 C-1662.05661175 670.54927379 -1662.05189207 661.1096417 -1662.04231262 651.66998291 C-1662.03143549 640.82782624 -1662.03495714 629.98574488 -1662.04596543 619.14359003 C-1662.05510443 609.75931128 -1662.05629148 600.37505491 -1662.05108809 590.99077314 C-1662.04800401 585.41905356 -1662.04745891 579.84736911 -1662.05416107 574.27565193 C-1662.11167063 518.93788809 -1662.11167063 518.93788809 -1657.59407043 493.07794189 C-1657.38048889 491.83536621 -1657.16690735 490.59279053 -1656.94685364 489.31256104 C-1649.57390943 448.32881835 -1632.59822707 407.28577182 -1605.78157043 375.14044189 C-1604.90265266 374.07013886 -1604.02374675 372.99982608 -1603.14485168 371.92950439 C-1596.63804942 364.07513953 -1589.78222302 356.5552745 -1582.78157043 349.14044189 C-1582.14606262 348.46239502 -1581.51055481 347.78434814 -1580.85578918 347.08575439 C-1576.6994471 342.78061725 -1572.11798692 339.06629628 -1567.45735168 335.32012939 C-1565.25090332 333.52275978 -1563.13442782 331.68046234 -1561.03157043 329.76544189 C-1544.47421264 315.16394307 -1525.02815364 303.74673968 -1505.78157043 293.14044189 C-1504.8950177 292.64785889 -1504.00846497 292.15527588 -1503.095047 291.64776611 C-1440.86085868 257.28859949 -1368.79387129 240.15133019 -1298.53157043 232.82794189 C-1297.75227173 232.74663025 -1296.97297302 232.6653186 -1296.1700592 232.58154297 C-1280.12536688 230.9317305 -1264.19063491 229.98870954 -1248.06683159 230.00901413 C-1246.43782079 230.0073598 -1244.80881039 230.0052714 -1243.17980063 230.00279403 C-1238.73112041 229.99727798 -1234.28245962 229.9978904 -1229.83377709 229.99957162 C-1224.98295958 230.0003074 -1220.13214735 229.99526884 -1215.28133214 229.9909966 C-1205.67245782 229.98344228 -1196.06358907 229.98122485 -1186.45471209 229.98066754 C-1174.93932141 229.97975133 -1163.42393583 229.97307609 -1151.90854735 229.96632072 C-1124.07760397 229.95028324 -1096.24666116 229.9443596 -1068.415714 229.93957197 C-1055.23846219 229.93723335 -1042.06121083 229.93363036 -1028.88395936 229.92987659 C-984.44680052 229.9172429 -940.00964179 229.90643044 -895.57248119 229.90303614 C-893.45008937 229.9028739 -891.32769756 229.90270834 -889.20530574 229.90254175 C-884.94915429 229.90220797 -880.69300284 229.90187749 -876.43685138 229.90154719 C-871.45443909 229.90116031 -866.47202681 229.9007707 -861.48961452 229.90037613 C-860.06363322 229.90026371 -858.63765193 229.90015229 -857.21167063 229.90004187 C-811.45668843 229.89649578 -765.70172196 229.88143059 -719.94674576 229.85810413 C-687.05432166 229.84134195 -654.16190055 229.82587877 -621.26947212 229.82136917 C-620.59172746 229.82127569 -619.9139828 229.8211822 -619.21570043 229.82108588 C-604.3307186 229.81906594 -589.44573681 229.81791063 -574.56075485 229.81755729 C-568.5701625 229.8174042 -562.57957016 229.81715028 -556.58897781 229.81687164 C-555.27850779 229.81681587 -553.96803776 229.81676011 -552.61785652 229.81670265 C-531.58968858 229.81555521 -510.56153701 229.80455932 -489.53337459 229.78998459 C-468.36722403 229.77556875 -447.2010943 229.77241115 -426.03494017 229.78042457 C-413.48529434 229.78485723 -400.93571609 229.78111571 -388.38607924 229.76518606 C-379.9729039 229.7553504 -371.55977528 229.75669506 -363.14660025 229.76662229 C-358.37279001 229.77195331 -353.59910834 229.77292671 -348.82530938 229.76011357 C-317.23618417 229.68067148 -285.80344445 231.14827866 -254.53157043 235.89044189 C-253.67654938 236.01638733 -252.82152832 236.14233276 -251.94059753 236.27209473 C-234.4041593 238.86134058 -217.04933637 242.13851397 -199.78157043 246.14044189 C-198.50378723 246.43644287 -197.22600403 246.73244385 -195.90950012 247.03741455 C-176.6058767 251.60076154 -157.79733722 257.46042443 -138.98078918 263.69903564 C-138.28026428 263.93096619 -137.57973938 264.16289673 -136.85798645 264.40185547 C-132.02781733 266.01731844 -132.02781733 266.01731844 -129.78157043 267.14044189 C-129.78710119 266.02396711 -129.78710119 266.02396711 -129.79274368 264.88493729 C-129.88148885 246.68542525 -129.94747027 228.485957 -129.98881912 210.28627396 C-130.00935202 201.484654 -130.03729274 192.68317941 -130.08332825 183.88165283 C-130.12348268 176.20079717 -130.14907041 168.52004689 -130.15792441 160.83908916 C-130.16309133 156.78060638 -130.17503592 152.72242481 -130.20449066 148.66403961 C-130.32179962 131.8392151 -130.39153741 115.48099407 -125.78157043 99.14044189 C-125.58716621 98.44512108 -125.39276199 97.74980026 -125.19246674 97.03340912 C-115.87505165 64.33500093 -93.01870779 35.0946747 -63.63703918 18.06622314 C-44.0950636 7.2637074 -22.51102247 0.05082739 0 0 Z M5.21842957 136.14044189 C5.19780457 159.90044189 5.17717957 183.66044189 5.15592957 208.14044189 C5.14682556 215.49325439 5.13772156 222.84606689 5.12834167 230.42169189 C5.11882392 239.80436731 5.11809479 249.18655713 5.14907837 258.56915283 C5.15177996 259.40245998 5.15448155 260.23576714 5.15726501 261.09432602 C5.16828664 264.44035632 5.17941077 267.7863848 5.19239295 271.13240814 C5.2289905 280.7747201 5.21311527 290.41346113 5.09845227 300.05522156 C5.02808041 306.06143798 4.99616686 312.06699678 4.99385959 318.07362366 C4.99047892 321.53837258 4.96670519 324.99998125 4.88918877 328.46392822 C3.88889714 344.32152209 3.88889714 344.32152209 10.37580013 358.04455566 C12.84664806 360.30822356 15.49356833 362.18848621 18.21842957 364.14044189 C21.42621874 367.65056323 24.32060302 371.37176593 27.21842957 375.14044189 C27.62883484 375.66911865 28.03924011 376.19779541 28.46208191 376.74249268 C59.24950549 416.62383393 76.78129466 463.17913357 82.21842957 513.14044189 C82.30065954 513.87157007 82.38288952 514.60269825 82.46761131 515.35598183 C83.47962488 525.63203872 83.37428133 535.90795988 83.37956238 546.22198486 C83.38419881 548.34254033 83.38922456 550.46309498 83.39460754 552.58364868 C83.40766229 558.32030634 83.41416401 564.05695232 83.4186182 569.79362249 C83.42156281 573.39270143 83.42567034 576.99177728 83.43012238 580.59085464 C83.44378493 591.89429994 83.45345519 603.19773805 83.45732427 614.50119102 C83.46178892 627.46755278 83.47926773 640.43380828 83.50832486 653.40013778 C83.53009859 663.47295427 83.54003698 673.54574122 83.54136539 683.61858094 C83.54240314 689.60983579 83.54808614 695.60099063 83.566185 701.59222031 C83.76278061 770.66014086 72.74310551 835.9019802 44.21842957 899.14044189 C43.84008972 899.99202881 43.46174988 900.84361572 43.07194519 901.7210083 C35.13812978 919.50799573 25.61464348 936.60605791 14.63249207 952.69122314 C14.0780232 953.52479938 14.0780232 953.52479938 13.51235294 954.37521553 C12.21842957 956.14044189 12.21842957 956.14044189 10.47936916 957.91810417 C2.92622929 966.47854366 4.28610965 976.64252019 4.42375183 987.37921143 C4.42572824 989.53829382 4.42461433 991.69738091 4.4206543 993.85646057 C4.41865124 999.69700696 4.45971865 1005.53654081 4.508672 1011.37685251 C4.55252103 1017.48800894 4.55655023 1023.59919026 4.56484985 1029.71047974 C4.58658023 1041.27368316 4.64398815 1052.83642165 4.71429628 1064.39942062 C4.80727417 1080.03106017 4.84497442 1095.66282746 4.88581181 1111.29467392 C4.95157267 1135.91027796 5.09104505 1160.524901 5.21842957 1185.14044189 C57.02842957 1185.14044189 108.83842957 1185.14044189 162.21842957 1185.14044189 C162.21842957 838.97044189 162.21842957 492.80044189 162.21842957 136.14044189 C110.40842957 136.14044189 58.59842957 136.14044189 5.21842957 136.14044189 Z M-1290.53157043 368.95294189 C-1291.19504486 369.03725464 -1291.85851929 369.12156738 -1292.542099 369.20843506 C-1364.72497394 378.39002147 -1448.8092702 398.38123829 -1496.51594543 458.09356689 C-1509.54630598 475.61715522 -1518.41015171 494.5047634 -1523.03157043 515.89044189 C-1523.27665344 517.02413208 -1523.27665344 517.02413208 -1523.52668762 518.1807251 C-1526.04452172 530.58602393 -1525.93572953 543.02894166 -1525.94270325 555.6272583 C-1525.94733949 557.58829337 -1525.95236522 559.54932755 -1525.95774841 561.51036072 C-1525.9708027 566.81493745 -1525.97730449 572.11950155 -1525.98175907 577.42409182 C-1525.98470303 580.75058819 -1525.9888104 584.07708122 -1525.99326324 587.4035759 C-1526.00692409 597.84684342 -1526.01659585 608.29010317 -1526.02046514 618.73337901 C-1526.02493294 630.7212158 -1526.04242726 642.70893785 -1526.07146573 654.69673979 C-1526.09321744 664.00513325 -1526.10317666 673.31349476 -1526.10450625 682.62191331 C-1526.10554532 688.16086595 -1526.11125772 693.69971053 -1526.12932587 699.23863602 C-1526.34511714 731.81028975 -1526.34511714 731.81028975 -1522.78157043 764.14044189 C-1522.65715199 764.88707407 -1522.53273354 765.63370625 -1522.40454483 766.40296364 C-1521.71145212 770.52744557 -1520.91777627 774.61566795 -1520.03157043 778.70294189 C-1519.7740802 779.9085376 -1519.51658997 781.1141333 -1519.251297 782.35626221 C-1510.39184169 822.76090892 -1494.4214902 862.78982723 -1466.78157043 894.14044189 C-1465.91918762 895.12399658 -1465.05680481 896.10755127 -1464.16828918 897.12091064 C-1432.47948442 932.74536996 -1387.74156255 952.4181968 -1340.36839294 955.45410156 C-1327.19668265 956.18531163 -1314.05622629 956.26440895 -1300.86750793 956.21856689 C-1298.43182956 956.21372423 -1295.99615035 956.20928546 -1293.56047058 956.2052002 C-1288.06771128 956.19491484 -1282.57497495 956.18106776 -1277.08222961 956.1651001 C-1270.5380445 956.14631314 -1263.99386617 956.13317678 -1257.44966125 956.12359619 C-1256.55908531 956.12228211 -1255.66850937 956.12096803 -1254.75094628 956.11961412 C-1253.3961484 956.11761609 -1253.3961484 956.11761609 -1252.01398087 956.1155777 C-1232.31725988 956.08646375 -1212.62073053 956.03341775 -1192.92413712 955.95652008 C-1182.57387646 955.91654833 -1172.22369745 955.8841544 -1161.87336731 955.8694458 C-1152.6610878 955.85634105 -1143.44896983 955.82923339 -1134.23678148 955.78582883 C-1129.41944633 955.76356689 -1124.60230711 955.74751012 -1119.78491592 955.74855804 C-1077.77103088 955.7477233 -1031.50778219 953.28673593 -999.46907043 922.45294189 C-990.27905044 913.13106445 -985.41425326 901.54307251 -980.20222473 889.74273682 C-969.64549919 865.93092988 -955.69610905 844.1087769 -937.78157043 825.14044189 C-937.03649231 824.33091064 -936.29141418 823.52137939 -935.52375793 822.68731689 C-907.86528215 793.65960963 -866.94981791 780.20867943 -827.58809853 779.07740021 C-821.32109685 778.96106309 -815.05338888 778.94938187 -808.78547668 778.93731689 C-807.78563185 778.93448952 -806.78578701 778.93166214 -805.75564384 778.92874908 C-800.46000284 778.91383167 -795.16438854 778.90455626 -789.86872864 778.90020752 C-784.46331362 778.89474577 -779.05815336 778.87074459 -773.65281773 778.84223557 C-769.43915139 778.82339889 -765.22554375 778.81839247 -761.01183891 778.81687164 C-759.02239025 778.81388979 -757.03294146 778.80601764 -755.04353523 778.79268646 C-716.90296057 778.55541626 -680.05625589 787.60194408 -650.78157043 813.14044189 C-649.82895325 813.96028564 -648.87633606 814.78012939 -647.89485168 815.62481689 C-622.41753931 837.97751448 -605.72171756 869.15488604 -592.25691223 899.77838135 C-582.17765421 922.22941451 -565.12617826 935.64005381 -542.58235168 944.39434814 C-518.54540006 953.30638415 -493.82001052 955.75275048 -468.33357239 955.64215088 C-465.79418134 955.64594632 -463.25479238 955.65145634 -460.71540833 955.65852356 C-454.6025799 955.67090885 -448.49001925 955.66503207 -442.37720481 955.64984798 C-435.22576468 955.63277648 -428.0743738 955.63622424 -420.92291953 955.63994206 C-408.14618778 955.64578836 -395.36955531 955.63177542 -382.59284973 955.60699463 C-370.2549213 955.58306831 -357.91712534 955.57600047 -345.57917786 955.58648682 C-332.07021813 955.59794823 -318.5613193 955.59976317 -305.05236024 955.58538872 C-303.60654367 955.58386323 -302.16072709 955.58234287 -300.71491051 955.58082771 C-300.00394809 955.5800699 -299.29298567 955.57931208 -298.56047893 955.57853131 C-293.60018859 955.57382983 -288.63992586 955.57561004 -283.679636 955.57989311 C-276.98080763 955.58539231 -270.28218612 955.57437661 -263.58338165 955.55293846 C-261.14313299 955.54743203 -258.70286677 955.54684775 -256.26261711 955.55189133 C-208.81892142 955.63756515 -162.27015974 943.28324063 -126.93000793 910.11309814 C-124.78157043 908.14044189 -124.78157043 908.14044189 -122.21516418 906.11700439 C-120.02813828 904.34070406 -118.2810617 902.59765612 -116.46907043 900.45294189 C-114.67062553 898.33803243 -112.87746257 896.24256079 -110.97688293 894.21856689 C-99.96461512 882.4295001 -91.35740832 868.63922416 -83.94319153 854.37481689 C-83.19580824 852.93722719 -82.43903705 851.50445903 -81.67073059 850.07794189 C-68.53407067 825.56089152 -60.87734153 797.31929936 -55.78157043 770.14044189 C-55.59341798 769.14805417 -55.40526552 768.15566645 -55.21141148 767.13320637 C-50.93985607 743.65890715 -51.20432628 720.20023337 -51.27719998 696.42060804 C-51.29126938 690.67207692 -51.28456667 684.92356054 -51.28106689 679.17501831 C-51.27838394 669.54153329 -51.29168122 659.90817426 -51.3150177 650.27471924 C-51.34169105 639.18804681 -51.34334323 628.10158367 -51.33162934 617.01489007 C-51.32080263 606.26727115 -51.32707203 595.51972683 -51.34118462 584.7721138 C-51.34689451 580.23274566 -51.3469018 575.69343302 -51.34211922 571.15406418 C-51.33730046 565.80371429 -51.34765094 560.45359001 -51.36907387 555.10328293 C-51.37457306 553.1568274 -51.37517152 551.21034987 -51.370121 549.26389313 C-51.27515999 507.37326806 -65.77108068 472.32239689 -95.15657043 442.45294189 C-101.25369861 436.4007579 -107.74941231 431.07347743 -114.78157043 426.14044189 C-115.68455872 425.50356445 -115.68455872 425.50356445 -116.60578918 424.8538208 C-173.86686811 384.9924357 -247.23440792 370.88734494 -315.78157043 366.14044189 C-317.04687129 366.05230766 -318.31217215 365.96417342 -319.61581546 365.87336844 C-336.27485584 364.83670231 -352.9591231 364.99580712 -369.64223183 365.00577298 C-374.26214288 365.00742143 -378.88204954 365.00325255 -383.50195915 364.9998638 C-391.58340942 364.99473293 -399.66485372 364.99328857 -407.74630547 364.99431992 C-419.76472763 364.99584992 -431.78314321 364.99167185 -443.80156409 364.98644529 C-466.521361 364.97679053 -489.24115566 364.97396174 -511.96095439 364.97338823 C-529.51359007 364.97292806 -547.06622486 364.97086646 -564.61886024 364.96768761 C-569.67792139 364.96679001 -574.73698254 364.9659002 -579.79604369 364.96501273 C-581.05387809 364.96479168 -582.31171249 364.96457063 -583.60766308 364.96434289 C-618.97392162 364.95819129 -654.34017994 364.95423615 -689.70643902 364.95468616 C-691.05243498 364.95470194 -692.39843095 364.95471768 -693.74442692 364.95473337 C-699.82079492 364.95480675 -705.89716292 364.95489492 -711.97353093 364.95498726 C-714.68285054 364.95502838 -717.39217015 364.95506853 -720.10148976 364.95510857 C-721.45755006 364.95512897 -722.81361036 364.95514999 -724.16967066 364.95517163 C-767.02411279 364.95585146 -809.87854664 364.94854004 -852.73298645 364.93463135 C-863.52713614 364.9311299 -874.32128584 364.92766025 -885.1154356 364.92436695 C-885.78020766 364.92416408 -886.44497972 364.9239612 -887.12989639 364.92375218 C-923.09167438 364.91284407 -959.05345289 364.91089072 -995.01523238 364.91159457 C-1000.07838015 364.9116692 -1005.14152791 364.9117179 -1010.20467567 364.91174889 C-1011.45127189 364.91176054 -1012.69786811 364.91177219 -1013.98223997 364.9117842 C-1033.99207417 364.9118149 -1054.00190135 364.90544504 -1074.01173346 364.89681662 C-1094.14447543 364.88831514 -1114.2772072 364.88736964 -1134.40994998 364.89392594 C-1146.34966274 364.89760512 -1158.28934439 364.8958384 -1170.22905382 364.8859836 C-1178.22914266 364.87994201 -1186.22920919 364.88132497 -1194.22929704 364.8884541 C-1198.77118092 364.89230074 -1203.31300503 364.89321417 -1207.85488447 364.88499675 C-1235.46730279 364.83829543 -1263.11148113 365.36725224 -1290.53157043 368.95294189 Z M-763.15657043 1272.89044189 C-765.15034228 1276.87798559 -765.63814694 1279.77015362 -764.78157043 1284.14044189 C-762.34621529 1289.01115218 -759.53967523 1291.56395396 -754.78157043 1294.14044189 C-751.66553983 1294.70234227 -748.61116447 1294.68097545 -745.4513855 1294.64837646 C-744.05452921 1294.65773641 -744.05452921 1294.65773641 -742.6294536 1294.66728544 C-739.51331532 1294.68322264 -736.39795847 1294.67060804 -733.28181458 1294.65802002 C-731.0460057 1294.66344083 -728.81020039 1294.67056326 -726.57440186 1294.67926025 C-720.50414379 1294.69750222 -714.43415754 1294.69042201 -708.3638947 1294.67774391 C-702.011693 1294.66761962 -695.65951463 1294.67700813 -689.30731201 1294.68328857 C-677.95513576 1294.69103344 -666.60309754 1294.67859833 -655.2509489 1294.65825123 C-644.96462669 1294.64038495 -634.67848508 1294.64348125 -624.39216614 1294.66192627 C-612.43997671 1294.68334851 -600.48789696 1294.69129149 -588.53568166 1294.67947721 C-582.2113969 1294.67324193 -575.88723645 1294.67240765 -569.56295967 1294.68562317 C-563.61621157 1294.69718154 -557.66980433 1294.68915567 -551.72309303 1294.66604614 C-549.54101884 1294.66075882 -547.35891594 1294.6622732 -545.17685318 1294.6710968 C-542.19709506 1294.6820347 -539.21842772 1294.66830914 -536.23873901 1294.64837646 C-535.37608541 1294.65729935 -534.51343181 1294.66622224 -533.62463719 1294.67541552 C-527.86827636 1294.60077516 -524.52962632 1293.43282255 -519.78157043 1290.14044189 C-516.43379003 1286.46868274 -516.10048428 1282.53179799 -516.22297668 1277.71856689 C-517.21727083 1273.12951702 -520.22036188 1270.06109045 -523.78157043 1267.14044189 C-527.77045805 1265.81081269 -531.59849919 1265.99239383 -535.75772095 1265.99327087 C-537.15179067 1265.98775584 -537.15179067 1265.98775584 -538.57402343 1265.9821294 C-541.7015609 1265.97107861 -544.82906517 1265.96724637 -547.95661926 1265.96343994 C-550.19360459 1265.95717643 -552.43058888 1265.95052973 -554.66757202 1265.94352722 C-560.75437636 1265.92610906 -566.84117283 1265.91556358 -572.92799592 1265.90732169 C-576.7286882 1265.90217407 -580.52937803 1265.89609828 -584.33006859 1265.88981056 C-594.85324809 1265.87294135 -605.37642645 1265.85830573 -615.8996172 1265.85106182 C-618.62988092 1265.84915194 -621.36014463 1265.84723161 -624.09040833 1265.84527588 C-624.76899813 1265.84479214 -625.44758793 1265.8443084 -626.14674105 1265.84381 C-637.14211051 1265.83550774 -648.13737124 1265.81016663 -659.13269321 1265.7776952 C-670.42164052 1265.74462839 -681.7105346 1265.72694628 -692.99953669 1265.72341758 C-699.33783552 1265.72106363 -705.67596244 1265.71205801 -712.01421547 1265.68695641 C-717.97565286 1265.66372848 -723.93680451 1265.65942129 -729.89827538 1265.66971779 C-732.0872327 1265.67021452 -734.27620385 1265.66385397 -736.46511841 1265.65016174 C-739.45191342 1265.63252265 -742.43767404 1265.63950995 -745.42446899 1265.6526947 C-746.2920818 1265.64172546 -747.1596946 1265.63075621 -748.0535987 1265.61945456 C-754.83566332 1265.69180992 -758.63982228 1267.66052298 -763.15657043 1272.89044189 Z " fill="#5897FF" transform="translate(1681.7815704345703,17.85955810546875)"/>
</svg>
